<mxfile host="app.diagrams.net" modified="2023-04-19T09:50:24.306Z" agent="Mozilla/5.0 (Macintosh; Intel Mac OS X 10_15_7) AppleWebKit/537.36 (KHTML, like Gecko) Chrome/111.0.0.0 Safari/537.36" etag="7XCYrTbWidjY_VT8c1nN" version="21.1.5" type="github">
  <diagram name="第 1 页" id="QrcSys4vY6J_xBYetEID">
    <mxGraphModel dx="954" dy="487" grid="1" gridSize="10" guides="1" tooltips="1" connect="1" arrows="1" fold="1" page="1" pageScale="1" pageWidth="827" pageHeight="1169" math="0" shadow="0">
      <root>
        <mxCell id="0" />
        <mxCell id="1" parent="0" />
        <mxCell id="eGU2VykcgBndBSDYJqvv-5" value="同步" style="edgeStyle=orthogonalEdgeStyle;rounded=0;orthogonalLoop=1;jettySize=auto;html=1;exitX=0.5;exitY=1;exitDx=0;exitDy=0;entryX=0.5;entryY=0;entryDx=0;entryDy=0;" edge="1" parent="1" source="eGU2VykcgBndBSDYJqvv-1" target="eGU2VykcgBndBSDYJqvv-4">
          <mxGeometry relative="1" as="geometry" />
        </mxCell>
        <mxCell id="eGU2VykcgBndBSDYJqvv-1" value="back后台" style="rounded=1;whiteSpace=wrap;html=1;fillColor=#dae8fc;strokeColor=#6c8ebf;" vertex="1" parent="1">
          <mxGeometry x="230" y="20" width="110" height="40" as="geometry" />
        </mxCell>
        <mxCell id="eGU2VykcgBndBSDYJqvv-20" style="edgeStyle=orthogonalEdgeStyle;rounded=0;orthogonalLoop=1;jettySize=auto;html=1;exitX=1;exitY=0.5;exitDx=0;exitDy=0;entryX=0;entryY=0.5;entryDx=0;entryDy=0;" edge="1" parent="1" source="eGU2VykcgBndBSDYJqvv-4" target="eGU2VykcgBndBSDYJqvv-18">
          <mxGeometry relative="1" as="geometry" />
        </mxCell>
        <mxCell id="eGU2VykcgBndBSDYJqvv-21" value="主从同步" style="edgeLabel;html=1;align=center;verticalAlign=middle;resizable=0;points=[];" vertex="1" connectable="0" parent="eGU2VykcgBndBSDYJqvv-20">
          <mxGeometry x="-0.3" y="4" relative="1" as="geometry">
            <mxPoint as="offset" />
          </mxGeometry>
        </mxCell>
        <mxCell id="eGU2VykcgBndBSDYJqvv-4" value="AD" style="rounded=1;whiteSpace=wrap;html=1;fillColor=#ffe6cc;strokeColor=#d79b00;" vertex="1" parent="1">
          <mxGeometry x="230" y="120" width="110" height="40" as="geometry" />
        </mxCell>
        <mxCell id="eGU2VykcgBndBSDYJqvv-16" style="edgeStyle=orthogonalEdgeStyle;rounded=0;orthogonalLoop=1;jettySize=auto;html=1;exitX=0.5;exitY=0;exitDx=0;exitDy=0;" edge="1" parent="1" source="eGU2VykcgBndBSDYJqvv-6" target="eGU2VykcgBndBSDYJqvv-11">
          <mxGeometry relative="1" as="geometry" />
        </mxCell>
        <mxCell id="eGU2VykcgBndBSDYJqvv-6" value="dms" style="rounded=1;whiteSpace=wrap;html=1;fillColor=#dae8fc;strokeColor=#6c8ebf;" vertex="1" parent="1">
          <mxGeometry x="10" y="340" width="110" height="40" as="geometry" />
        </mxCell>
        <mxCell id="eGU2VykcgBndBSDYJqvv-23" style="edgeStyle=orthogonalEdgeStyle;rounded=0;orthogonalLoop=1;jettySize=auto;html=1;exitX=0.5;exitY=0;exitDx=0;exitDy=0;entryX=0.5;entryY=1;entryDx=0;entryDy=0;" edge="1" parent="1" source="eGU2VykcgBndBSDYJqvv-7" target="eGU2VykcgBndBSDYJqvv-11">
          <mxGeometry relative="1" as="geometry" />
        </mxCell>
        <mxCell id="eGU2VykcgBndBSDYJqvv-7" value="nacos" style="rounded=1;whiteSpace=wrap;html=1;fillColor=#dae8fc;strokeColor=#6c8ebf;" vertex="1" parent="1">
          <mxGeometry x="140" y="340" width="110" height="40" as="geometry" />
        </mxCell>
        <mxCell id="eGU2VykcgBndBSDYJqvv-24" style="edgeStyle=orthogonalEdgeStyle;rounded=0;orthogonalLoop=1;jettySize=auto;html=1;exitX=0.5;exitY=0;exitDx=0;exitDy=0;entryX=0.5;entryY=1;entryDx=0;entryDy=0;" edge="1" parent="1" source="eGU2VykcgBndBSDYJqvv-8" target="eGU2VykcgBndBSDYJqvv-11">
          <mxGeometry relative="1" as="geometry" />
        </mxCell>
        <mxCell id="eGU2VykcgBndBSDYJqvv-8" value="gitlab" style="rounded=1;whiteSpace=wrap;html=1;fillColor=#dae8fc;strokeColor=#6c8ebf;" vertex="1" parent="1">
          <mxGeometry x="270" y="340" width="110" height="40" as="geometry" />
        </mxCell>
        <mxCell id="eGU2VykcgBndBSDYJqvv-25" style="edgeStyle=orthogonalEdgeStyle;rounded=0;orthogonalLoop=1;jettySize=auto;html=1;exitX=0.5;exitY=0;exitDx=0;exitDy=0;entryX=0.5;entryY=1;entryDx=0;entryDy=0;" edge="1" parent="1" source="eGU2VykcgBndBSDYJqvv-9" target="eGU2VykcgBndBSDYJqvv-11">
          <mxGeometry relative="1" as="geometry">
            <mxPoint x="280" y="270" as="targetPoint" />
          </mxGeometry>
        </mxCell>
        <mxCell id="eGU2VykcgBndBSDYJqvv-9" value="vpn" style="rounded=1;whiteSpace=wrap;html=1;fillColor=#dae8fc;strokeColor=#6c8ebf;" vertex="1" parent="1">
          <mxGeometry x="414" y="340" width="110" height="40" as="geometry" />
        </mxCell>
        <mxCell id="eGU2VykcgBndBSDYJqvv-15" style="edgeStyle=orthogonalEdgeStyle;rounded=0;orthogonalLoop=1;jettySize=auto;html=1;exitX=0.5;exitY=0;exitDx=0;exitDy=0;entryX=0.5;entryY=1;entryDx=0;entryDy=0;" edge="1" parent="1" source="eGU2VykcgBndBSDYJqvv-11" target="eGU2VykcgBndBSDYJqvv-4">
          <mxGeometry relative="1" as="geometry" />
        </mxCell>
        <mxCell id="eGU2VykcgBndBSDYJqvv-22" style="edgeStyle=orthogonalEdgeStyle;rounded=0;orthogonalLoop=1;jettySize=auto;html=1;exitX=0.5;exitY=0;exitDx=0;exitDy=0;entryX=0.5;entryY=1;entryDx=0;entryDy=0;" edge="1" parent="1" source="eGU2VykcgBndBSDYJqvv-11" target="eGU2VykcgBndBSDYJqvv-18">
          <mxGeometry relative="1" as="geometry" />
        </mxCell>
        <mxCell id="eGU2VykcgBndBSDYJqvv-11" value="SLB" style="rounded=1;whiteSpace=wrap;html=1;fillColor=#d5e8d4;strokeColor=#82b366;" vertex="1" parent="1">
          <mxGeometry x="230" y="220" width="110" height="40" as="geometry" />
        </mxCell>
        <mxCell id="eGU2VykcgBndBSDYJqvv-26" style="edgeStyle=orthogonalEdgeStyle;rounded=0;orthogonalLoop=1;jettySize=auto;html=1;exitX=0.5;exitY=0;exitDx=0;exitDy=0;entryX=0.5;entryY=1;entryDx=0;entryDy=0;" edge="1" parent="1" source="eGU2VykcgBndBSDYJqvv-13" target="eGU2VykcgBndBSDYJqvv-11">
          <mxGeometry relative="1" as="geometry" />
        </mxCell>
        <mxCell id="eGU2VykcgBndBSDYJqvv-13" value="......" style="rounded=1;whiteSpace=wrap;html=1;fillColor=#dae8fc;strokeColor=#6c8ebf;" vertex="1" parent="1">
          <mxGeometry x="560" y="340" width="110" height="40" as="geometry" />
        </mxCell>
        <mxCell id="eGU2VykcgBndBSDYJqvv-18" value="AD" style="rounded=1;whiteSpace=wrap;html=1;fillColor=#ffe6cc;strokeColor=#d79b00;" vertex="1" parent="1">
          <mxGeometry x="440" y="120" width="110" height="40" as="geometry" />
        </mxCell>
      </root>
    </mxGraphModel>
  </diagram>
</mxfile>
